<svg xmlns="http://www.w3.org/2000/svg" viewBox="-8 -13 22 14"><!---0008-00130002200010--><g><path style="fill:#AD2B00;" d="M10.598-8.351c-0.023,0.099-0.061,0.198-0.104,0.288C9.778-6.585,7.738-6.256,6.275-6.302C5.269-6.333,4.281-7.093,3.254-6.623C2.186-6.135,1.105-5.642-0.049-5.417C-1.415-5.151-3.3-5.276-4.347-6.309c-0.181-0.179-0.348-0.425-0.282-0.671c0.228-0.849,1.248-0.047,1.668,0.111c1.103,0.416,2.807,0.685,3.926,0.215c0.658-0.276,1.246-0.702,1.905-0.976c0.659-0.275,1.45-0.382,2.065-0.018c0.786,0.465,1.82,0.375,2.701,0.133c0.536-0.147,1.041-0.4,1.483-0.736C9.48-8.525,9.888-9.27,10.407-8.934C10.622-8.795,10.648-8.571,10.598-8.351z"/></g><g transform="translate(0, -27) scale(0.7)" preserveAspectRatio="none"><!---0008-00130002200014--><g><path style="fill:#E53366;" d="M-1.234-6.066c0.205-0.032,0.801,0.377,1.681,0.18c0.879-0.198,1.659-0.837,3.164-1.002c1.505-0.165,1.949,0.322,3.055,0.12c1.106-0.202,0.856-0.447,1.207-0.494C8.223-7.31,9.38-5.534,8.222-3.936s-3.648,1.935-5.03,1.941s-3.775-0.722-4.287-2.048C-1.509-5.116-1.234-6.066-1.234-6.066z"/><path style="fill:#FF6950;" d="M8.438-4.284C8.377-4.168,8.306-4.051,8.222-3.935C7.064-2.337,4.574-2.001,3.193-1.995C2.039-1.99,0.18-2.496-0.7-3.436c0.423-0.614,1.545-1.756,4.134-1.979C5.877-5.625,7.497-4.91,8.438-4.284z"/><path style="fill:#AD2B00;" d="M10.598-8.351c-0.023,0.099-0.061,0.198-0.104,0.288C9.778-6.585,7.738-6.256,6.275-6.302C5.269-6.333,4.281-7.093,3.254-6.623C2.186-6.135,1.105-5.642-0.049-5.417C-1.415-5.151-3.3-5.276-4.347-6.309c-0.181-0.179-0.348-0.425-0.282-0.671c0.228-0.849,1.248-0.047,1.668,0.111c1.103,0.416,2.807,0.685,3.926,0.215c0.658-0.276,1.246-0.702,1.905-0.976c0.659-0.275,1.45-0.382,2.065-0.018c0.786,0.465,1.82,0.375,2.701,0.133c0.536-0.147,1.041-0.4,1.483-0.736C9.48-8.525,9.888-9.27,10.407-8.934C10.622-8.795,10.648-8.571,10.598-8.351z"/></g></g></svg>