<svg xmlns="http://www.w3.org/2000/svg" viewBox="-28 -47 48 21"><!---0028-00470004800021--><g><g><path style="fill:#5D9823;" d="M-7.536-39.666c-0.024-0.015-0.048-0.029-0.072-0.044c-0.879-0.518-1.891-0.79-2.911-0.777c-1.398,0.018-2.813-0.093-4.2-0.261c-2.238-0.271-4.45-0.759-6.594-1.455c-0.444-0.144-3.454-1.259-2.875,0.177c0.191,0.473,0.616,0.92,0.902,1.342c0.725,1.068,1.521,2.087,2.382,3.048c1.278,1.426,2.442,2.951,3.941,4.173c1.254,1.023,3.001,2.134,4.651,2.256c1.932,0.143,3.851-0.327,5.711-0.791c1.758-0.438,3.656-0.755,5.413-1.194c-0.081-0.229-0.165-0.532-0.204-0.893c-0.043-0.399-0.018-0.742,0.02-0.998c-0.365-0.043-0.908-0.143-1.508-0.409c-1.153-0.511-1.868-1.366-2.45-2.014C-6.034-38.29-6.614-39.102-7.536-39.666z"/><path style="fill:#75B438;" d="M-4.513-34.845c-0.916-1.46-1.538-2.687-1.938-3.541c-0.113-0.241-0.215-0.465-0.312-0.681c-0.236-0.216-0.484-0.422-0.772-0.599c-0.024-0.015-0.048-0.029-0.072-0.044c-0.879-0.518-1.891-0.79-2.911-0.777c-1.398,0.018-2.813-0.093-4.2-0.261c-2.238-0.272-4.45-0.759-6.594-1.455c-0.444-0.144-3.454-1.259-2.875,0.177c0.191,0.473,0.616,0.92,0.902,1.342c0.725,1.068,1.521,2.087,2.382,3.048c0.233,0.26,0.461,0.526,0.69,0.79c0.511,0.386,0.9,0.633,1.067,0.736c2.201,1.354,4.173,1.791,5.501,2.086c1.578,0.35,2.386,0.529,3.543,0.419c0.85-0.081,1.309-0.264,4.371-0.965C-5.215-34.688-4.791-34.783-4.513-34.845z"/><path style="fill:#8BCB48;" d="M-24.048-42.677c0.713,1.083,1.804,1.837,3.021,2.38c1.424,0.635,2.967,0.944,4.482,1.311c3.997,0.968,7.888,2.374,11.581,4.186l0.554,0.222c-0.294-0.56-0.667-1.169-1.246-1.423c-3.774-1.655-7.706-2.951-11.724-3.866c-1.297-0.295-2.611-0.553-3.848-1.043c-1.019-0.404-1.981-0.995-2.72-1.796C-23.982-42.698-24.019-42.691-24.048-42.677z"/><path style="fill:#8BCB48;" d="M-12.177-40.535c1.319,1.029,2.286,2.472,2.63,4.124l1.184-0.661c-0.694-1.436-1.836-2.643-3.212-3.446C-11.776-40.523-11.976-40.524-12.177-40.535z"/><path style="fill:#8BCB48;" d="M-17.216-41.153c-0.229-0.045-0.458-0.085-0.686-0.134c0.647,0.648,1.183,1.407,1.532,2.254l1.206,0.203C-15.735-39.695-16.434-40.471-17.216-41.153z"/><path style="fill:#5D9823;" d="M-22.645-40.958c0.424,0.309,0.889,0.565,0.96,0.604c0.686,0.374,1.331,0.608,1.948,0.804c2.956,0.936,4.434,1.403,5.874,1.697c2.128,0.433,5.198,1.429,9.116,3.956c0.374-0.199,0.748-0.398,1.122-0.597c-0.645-0.343-1.536-0.802-2.615-1.309c-0.798-0.375-2.152-0.973-3.656-1.557c-1.347-0.523-2.755-0.866-4.162-1.186c-1.168-0.265-3.258-0.851-5.779-1.629c-1.41-0.435-2.263-0.818-3.179-1.54c-0.404-0.319-0.739-0.65-1.019-0.967c-0.075,0.033-0.129,0.083-0.167,0.145C-23.796-41.99-23.289-41.427-22.645-40.958z"/><path style="fill:#5D9823;" d="M-16.34-34.615c2.641,0.028,5.327-0.672,7.6-2.015l-0.638-0.418c-2.408,1.32-5.172,1.985-7.918,1.904C-16.988-34.947-16.646-34.811-16.34-34.615z"/><path style="fill:#5D9823;" d="M-15.917-38.91c-1.884-0.108-3.781,0.08-5.615,0.523c0.18,0.215,0.354,0.435,0.539,0.644c2.049-0.415,4.116-0.688,6.211-0.821C-15.135-38.677-15.547-38.889-15.917-38.91z"/></g><g><path style="fill:#75B438;" d="M12.044-34.19c-1.054,1.124-2.601,1.684-4.134,1.837c-1.534,0.153-3.077-0.063-4.603-0.278c-1.324-0.187-2.648-0.373-3.972-0.56c-0.047-0.289-0.096-0.581-0.147-0.874c-0.068-0.393-0.138-0.782-0.209-1.166c0.326-0.085,0.798-0.242,1.3-0.553c0.657-0.408,1.038-0.877,1.337-1.242c0.636-0.776,1.3-1.529,1.928-2.312c1.641-2.046,3.954-2.915,4.326-3.038c1.509-0.499,3.107-0.599,4.678-0.749c0.797-0.076,1.594-0.162,2.379-0.321c0.447-0.09,1.712-0.741,1.944-0.171c0.173,0.425-0.281,1.118-0.452,1.481c-0.26,0.554-0.541,1.097-0.849,1.625C14.361-38.436,13.688-35.943,12.044-34.19z"/><path style="fill:#8BCB48;" d="M16.42-42.136c0.171-0.364,0.625-1.056,0.452-1.481c-0.232-0.57-1.497,0.081-1.944,0.171c-0.785,0.159-1.583,0.245-2.379,0.321c-1.571,0.15-3.17,0.25-4.678,0.749c-0.372,0.123-2.685,0.992-4.326,3.038c-0.356,0.444-0.723,0.878-1.091,1.313c-0.518,0.936-1.035,1.873-1.553,2.809c-0.23,0.416,0.168,0.993,0.542,1.286c2.005,0.162,4.118,0.188,6.124,0.35c0.909,0.073,1.836,0.145,2.723-0.065c0.87-0.206,1.63-0.666,2.327-1.233c1.246-1.68,1.895-3.816,2.953-5.631C15.879-41.039,16.161-41.583,16.42-42.136z"/><path style="fill:#B8E569;" d="M10.67-40.158c0.386-0.126,1.841-0.581,3.593-1.561c1.136-0.636,2.073-1.312,2.62-1.756c-0.006-0.047,0.007-0.1-0.01-0.143c-0.009-0.022-0.029-0.031-0.041-0.049c-0.522,0.311-1.382,0.822-2.517,1.36c-1.436,0.68-2.186,0.868-3.483,1.346c-1.358,0.5-4.717,1.761-7.964,4.178c-1.19,0.886-2.078,1.714-2.626,2.255C5.739-38.155,8.836-39.562,10.67-40.158z"/><path style="fill:#B8E569;" d="M11.511-43.029c-0.204,0.019-0.407,0.044-0.611,0.066c-0.169,0.164-0.327,0.353-0.462,0.573c-0.207,0.338-0.325,0.687-0.385,0.871c-0.227,0.685-0.263,1.288-0.257,1.689c0.164-0.078,0.328-0.156,0.492-0.234c0.026-0.431,0.121-1.094,0.461-1.818C10.969-42.354,11.242-42.723,11.511-43.029z"/><path style="fill:#B8E569;" d="M5.461-37.896c0.047-0.579,0.179-1.407,0.555-2.331c0.317-0.778,0.705-1.373,1.039-1.808c-0.064,0.03-0.126,0.059-0.196,0.093c-0.389,0.342-0.86,0.847-1.233,1.553c-0.696,1.319-0.822,2.908-0.595,2.982C5.088-37.389,5.202-37.454,5.461-37.896z"/><path style="fill:#75B438;" d="M7.566-38.938c0,0-2.667,1.067-6.99,4.086c-0.402,0.281-0.573,0.642-0.615,1.131c3.897-2.885,7.186-4.409,9.543-5.274c1.335-0.49,3.714-1.261,6.246-3.262c0.428-0.338,0.8-0.671,1.148-0.998c0.018-0.107,0.004-0.204-0.02-0.296c-0.539,0.425-1.15,0.874-1.861,1.325C13.849-41.486,13.298-41.29,7.566-38.938z"/><path style="fill:#75B438;" d="M13.125-35.637c-0.717,0.126-1.798,0.221-3.062-0.03c-2.118-0.42-3.518-1.565-4.131-2.137c-0.024,0.088-0.107,0.345-0.362,0.541c-0.304,0.235-0.638,0.215-0.718,0.209c0.754,0.531,2.172,1.382,4.154,1.751c1.576,0.293,2.937,0.174,3.901-0.008C12.98-35.419,13.052-35.528,13.125-35.637z"/><path style="fill:#75B438;" d="M14.898-39.218c-0.617,0.089-1.36,0.139-2.21,0.059c-1.056-0.099-1.919-0.36-2.535-0.6c-0.091,0.041-0.182,0.081-0.272,0.122c-0.195,0.088-0.389,0.176-0.584,0.264c1.7,0.814,3.712,0.929,5.504,0.355C14.833-39.086,14.866-39.152,14.898-39.218z"/></g><g><path style="fill:#5D9823;" d="M-0.593-29.977c0.142-0.996,0.236-2.237,0.153-3.656c-0.088-1.503-0.348-2.787-0.626-3.795c-0.127-0.051-0.425-0.151-0.8-0.087c-0.308,0.052-0.525,0.191-0.633,0.272c0.196,0.973,0.36,2.176,0.374,3.555c0.014,1.359-0.119,2.548-0.29,3.515c0.09,0.432,0.457,0.751,0.885,0.776C-1.134-29.374-0.758-29.605-0.593-29.977z"/><path style="fill:#75B438;" d="M-1.065-37.428c-0.127-0.051-0.425-0.151-0.8-0.087c-0.308,0.053-0.525,0.191-0.633,0.272c0.196,0.973,0.36,2.176,0.374,3.555c0.004,0.381-0.006,0.745-0.022,1.099c0.054,0.305,0.136,0.602,0.285,0.872c0.281,0.508,0.79,0.88,1.358,1.003c0.086-0.849,0.128-1.83,0.064-2.92C-0.527-35.136-0.788-36.42-1.065-37.428z"/><path style="fill:#8BCB48;" d="M-0.41-32.629c-0.001-0.324-0.01-0.658-0.03-1.004c-0.088-1.503-0.348-2.787-0.626-3.795c-0.127-0.051-0.425-0.151-0.8-0.087c-0.111,0.019-0.196,0.056-0.283,0.09c0.322,1.175,0.542,2.377,0.642,3.591c0.023,0.282,0.042,0.571,0.162,0.827c0.12,0.256,0.368,0.474,0.65,0.468C-0.586-32.541-0.494-32.578-0.41-32.629z"/></g></g></svg>