<svg xmlns="http://www.w3.org/2000/svg" xmlns:xlink="http://www.w3.org/1999/xlink" viewBox="-23 -56 47 62" width="100%" height="100%">
  <image href="Purploofie/body-pet_slimebase.svg" x="-23" y="-33" width="46" height="39"/>
  <image href="Purploofie/body-pet_base210723.svg" x="-23" y="-34" width="47" height="40"/>
  <!---0004-00130001600009--><path style="fill:#5421A3;" d="M-0.358-8.149c0.036-0.122,0.28-0.245,0.498-0.204c0.334,0.061,0.775,0.641,1.644,0.518c1.113-0.157,1.991-0.952,2.53-1.121C5.062-9.19,6.48-8.206,7.403-8.495c0.677-0.212,0.651-0.762,1.2-0.479c0.549,0.283-0.165,1.21-0.981,1.419S5.201-8.021,4.625-8.028C4.049-8.036,2.8-6.824,1.436-6.926S-0.501-7.67-0.358-8.149z"/><g><!---0004-00130001600013--><g><path style="fill:#C23DBE;" d="M1.197-8.136C1.34-8.161,1.739-7.683,2.353-7.857C2.966-8.031,3.525-8.695,4.57-8.804s1.337,0.448,2.107,0.279s0.605-0.449,0.849-0.484c0.244-0.034,0.989,1.97,0.14,3.669S5.086-3.392,4.132-3.452c-0.955-0.06-2.586-0.975-2.899-2.456C0.979-7.106,1.197-8.136,1.197-8.136z"/><path style="fill:#FF4AFF;" d="M7.825-5.711c-0.045,0.125-0.098,0.25-0.16,0.373C6.817-3.64,5.086-3.392,4.132-3.452C3.334-3.502,2.066-4.148,1.486-5.222c0.311-0.653,1.121-1.853,2.917-1.972C6.097-7.307,7.195-6.443,7.825-5.711z"/><path style="fill:#5421A3;" d="M-0.448-8.764c0.037-0.125,0.285-0.249,0.508-0.208C0.401-8.91,0.851-8.318,1.737-8.444c1.135-0.16,2.03-0.97,2.58-1.143c0.762-0.239,2.208,0.765,3.149,0.47C8.157-9.332,8.131-9.893,8.69-9.605s-0.169,1.234-1,1.447C6.859-7.945,5.221-8.633,4.634-8.641C4.046-8.649,2.772-7.413,1.382-7.517C-0.009-7.621-0.594-8.275-0.448-8.764z"/></g></g>
  <g><!--00008-00170000900008--><g><path style="fill:#240E8D;" d="M13.298-12.323c-0.002,0.001-0.004,0.002-0.006,0.002l-2.009,0.755c-0.189,0.071-0.44-0.118-0.56-0.421c-0.121-0.304-0.081-0.594,0.124-0.679l2.009-0.755c0.189-0.071,0.44,0.118,0.56,0.421C13.535-12.699,13.482-12.398,13.298-12.323z"/></g></g><g><!--00008-00190001000013--><g><path style="fill:#5421A3;" d="M13.823-12.631c0.185,1.795-0.462,3.306-1.446,3.374s-1.932-1.332-2.117-3.128c-0.093-0.898,0.023-1.724,0.285-2.335c0.262-0.611,0.67-1.005,1.162-1.039C12.689-15.827,13.637-14.426,13.823-12.631z"/><g><path style="fill:#9950E8;" d="M13.459-11.186c-0.147,0.833-0.55,1.415-1.088,1.456c-0.786,0.06-1.553-1.054-1.717-2.486c-0.08-0.696,0-1.341,0.188-1.818c-0.063,0.372-0.072,0.788-0.022,1.223c0.164,1.432,0.931,2.546,1.717,2.486C12.93-10.355,13.257-10.683,13.459-11.186z"/></g><path style="fill:#FFFFFF;" d="M12.175-14.081c0.055,0.321-0.156,0.61-0.472,0.646c-0.316,0.036-0.616-0.194-0.671-0.515c-0.028-0.16,0.012-0.313,0.097-0.43c0.085-0.117,0.217-0.198,0.375-0.217C11.82-14.632,12.12-14.402,12.175-14.081z"/></g></g><g><!---0010-00150001000008--><g><path style="fill:#5421A3;" d="M-6.336-10.652c0.003,0,0.005,0.001,0.008,0.001l2.582,0.376c0.243,0.036,0.484-0.214,0.539-0.557c0.055-0.344-0.075-0.639-0.341-0.686l-2.582-0.376c-0.243-0.035-0.484,0.214-0.539,0.557C-6.724-10.997-6.575-10.693-6.336-10.652z"/></g></g><g><!---0010-00180001100013--><g><path style="fill:#5421A3;" d="M-2.919-11.15c0,1.849-0.908,3.347-2.027,3.347s-2.027-1.499-2.027-3.347c0-0.924,0.227-1.761,0.594-2.367c0.367-0.606,0.874-0.98,1.434-0.98C-3.827-14.498-2.919-12.999-2.919-11.15z"/><g><path style="fill:#9950E8;" d="M-3.551-9.597c-0.224,0.829-0.713,1.399-1.312,1.424c-0.876,0.037-1.645-1.099-1.723-2.536c-0.038-0.698,0.098-1.341,0.341-1.812c-0.096,0.37-0.137,0.785-0.113,1.222c0.078,1.437,0.847,2.573,1.723,2.536C-4.197-8.782-3.811-9.101-3.551-9.597z"/></g><g><path style="fill:#FFFFFF;" d="M-4.757-12.67c0,0.411-0.311,0.744-0.695,0.744c-0.384,0-0.695-0.333-0.695-0.744c0-0.205,0.078-0.391,0.203-0.526c0.126-0.135,0.299-0.218,0.491-0.218C-5.068-13.414-4.757-13.081-4.757-12.67z"/></g></g></g>
  <image href="Purploofie/body-pet_antenna210723.svg" x="-23" y="-56" width="29" height="31"/>
</svg>
